<svg version="1.2" xmlns="http://www.w3.org/2000/svg" viewBox="0 0 1356 570" width="1356" height="570">
	<title>Nový projekt</title>
	<style>
		.s0 { fill: #ffb600 } 
	</style>
	<path id="Path 0" class="s0" d="m1349.4 7.3c-3.3 3.9-6.1 7.4-6.4 7.7-0.3 0.3-1.7 2.1-3.1 4-1.4 1.9-3.2 4.2-4 5-0.8 0.8-6.6 8.5-13 17-6.3 8.5-13 17.8-14.9 20.5-1.8 2.8-3.7 5.2-4 5.5-0.4 0.3-2.6 3.4-5 7-2.4 3.6-4.6 6.7-5 7-0.3 0.3-8.5 12.4-18.1 27-9.6 14.6-17.8 27.2-18.2 28-0.3 0.8-5.2 8.4-10.7 16.8-5.5 8.3-10 15.4-10 15.7 0 0.3-2.3 3.9-5 8-2.8 4.1-5 7.9-5 8.5 0 0.6-0.5 1-1 1-0.6 0-1 0.3-1 0.8 0.1 0.4-4.3 7.7-9.6 16.2-5.3 8.5-10.9 17.4-12.5 19.8-1.6 2.3-2.9 4.6-2.9 5.2 0 0.6-0.5 1-1 1-0.6 0-1 0.4-1 1 0 0.6-6.1 10.3-13.6 21.8-7.5 11.4-14 20.9-14.4 21.2-0.4 0.3-2.2 2.8-4.1 5.6-1.9 2.8-4.6 6.6-6.1 8.5-1.5 1.9-6.4 8.1-10.8 13.9-4.5 5.8-9.1 11.8-10.3 13.4-1.2 1.6-3.3 4.3-4.7 6-1.4 1.7-2.7 3.3-3 3.6-0.3 0.3-1.7 2.1-3 4-1.4 1.9-3.2 4.4-4 5.4-0.8 1.1-2.9 3.5-4.5 5.5-1.7 2-4.8 5.8-7 8.6-2.2 2.7-4.2 5.2-4.5 5.5-0.3 0.3-2.1 2.5-4 5-1.9 2.5-4.4 5.4-5.5 6.6-1.1 1.2-2.9 3.2-4 4.6-1.1 1.4-3.9 4.7-6.2 7.4-2.3 2.7-5.1 6-6.3 7.4-1.2 1.4-4.7 5.4-7.8 8.9-3.2 3.6-8.8 9.9-12.7 14-3.8 4.2-14.4 15-23.5 24.1-9.1 9.1-19.3 19-22.6 22-3.4 3-7.9 7.1-10 9-2.2 1.9-6.4 5.5-9.4 8-3 2.5-6.4 5.2-7.5 6.1-1.1 0.9-4.5 3.7-7.5 6.1-3 2.4-7.8 5.9-10.5 7.8-2.8 1.9-5.9 4.2-7 5.2-1.1 1-2.6 1.8-3.3 1.8-0.6 0-1.3 0.4-1.5 0.8-0.1 0.5-4.3 3.6-9.2 6.8-5 3.3-11.5 7.4-14.5 9.1-3 1.7-7.8 4.3-10.5 5.8-2.8 1.6-8.4 4.6-12.5 6.7-4.1 2.1-8.1 3.8-8.8 3.8-0.6 0-1.2 0.5-1.2 1 0 0.5-0.7 1-1.5 1-0.8 0-3.4 1-5.8 2.1-2.3 1.2-5.3 2.6-6.7 3.2-1.4 0.5-3.6 1.4-5 2-1.4 0.5-3.4 1.3-4.5 1.8-1.1 0.4-4.7 1.6-8 2.7-3.3 1.1-9.2 2.9-13 4.1-3.9 1.1-12.4 3.1-19 4.5-6.6 1.3-15.2 3-19 3.7-4.9 1-15.9 1.4-37 1.3-18.4 0-32.5-0.4-36.5-1.1-3.6-0.7-9.7-1.7-13.5-2.3-3.9-0.6-9-1.6-11.5-2.1-2.5-0.6-8.1-1.9-12.5-3.1-4.4-1.1-17.2-5-28.5-8.6-11.3-3.6-22.8-7.4-25.5-8.5-2.8-1-6-2.3-7.3-2.8-1.2-0.5-3.2-1.3-4.5-1.8-1.2-0.5-10.3-4.1-20.2-8-9.9-3.8-20.3-8-23-9.2-2.8-1.2-7-3-9.5-4.1-2.5-1.1-7-3.1-10-4.5-3-1.4-7.2-3.3-9.3-4.4-2-1-4.4-1.9-5.2-1.9-0.8 0-1.5-0.4-1.5-1 0-0.6-0.6-1-1.3-1-0.6 0-3.5-1-6.2-2.4-2.8-1.3-7.3-3.4-10-4.6-2.8-1.3-10.9-5-18-8.2-7.2-3.3-15.5-7.1-18.5-8.5-3-1.4-7.1-3.2-9-4-1.9-0.9-5.8-2.6-8.5-3.8-2.8-1.3-6.8-3.1-9-4-2.2-0.9-5.8-2.5-8-3.5-2.2-1-6.7-2.9-10-4.2-3.3-1.4-10.5-4.4-16-6.6-5.5-2.2-15-5.9-21-8.2-6.1-2.3-11.8-4.6-12.8-5.1-0.9-0.5-2.4-0.9-3.2-0.9-0.8 0-2.3-0.4-3.3-1-0.9-0.5-7.1-2.7-13.7-4.8-6.6-2.2-14-4.5-16.5-5.2-2.5-0.7-5.6-1.6-7-2.1-1.4-0.5-7.7-2.2-14-3.8-6.3-1.7-19.6-4.6-29.5-6.5-9.9-1.9-21.4-3.9-25.5-4.5-4.1-0.5-12.7-1.5-19-2.2-7.3-0.7-21.7-0.9-39.5-0.6-15.4 0.3-31.4 1-35.5 1.6-4.1 0.6-10.2 1.5-13.5 2-3.3 0.6-8 1.4-10.5 2-2.5 0.5-6.1 1.4-8 1.9-1.9 0.6-6 1.8-9 2.7-3 0.9-10.7 3.7-17 6.3-6.3 2.5-13 5.4-14.8 6.4-1.7 1-4.8 2.7-6.7 3.8-1.9 1.1-5.2 3-7.3 4.1-2 1.2-7.8 4.9-12.7 8.2-5 3.3-12.4 8.5-16.5 11.6-4.1 3.1-8.2 6.2-9 7-0.8 0.8-3.1 2.6-5 4-1.9 1.4-4.2 3.3-5 4.1-0.8 0.8-3.5 3.3-6 5.4-2.5 2.2-9.2 8.2-14.9 13.5-5.7 5.3-20 19.6-31.7 31.8l-21.4 22.3v33h1356c0-441.8-0.2-570-0.4-570-0.2 0-3 3.3-6.2 7.2z"/>
</svg>