<svg width="215" height="82" viewBox="0 0 215 82" fill="none" xmlns="http://www.w3.org/2000/svg">
<path d="M131.56 16H124.05V0.97998H116.04C112.13 0.97998 108.48 2.07998 105.37 3.97998C102.26 2.07998 98.61 0.97998 94.7 0.97998H86.69V16H79.18V25.16H68.92V36.84C68.92 48.18 78.14 57.4 89.48 57.4H102.99V81.03H107.75V57.4H121.26C132.6 57.4 141.82 48.18 141.82 36.84V25.16H131.56V16ZM91.45 5.73999H94.7C97.07 5.73999 99.31 6.25998 101.33 7.19998C98.53 10.08 96.55 13.78 95.81 17.89C94.43 17.25 92.97 16.76 91.45 16.44V5.73999ZM73.68 36.83V29.92H79.17V36.83C79.17 42.98 81.89 48.51 86.19 52.28C79.05 50.77 73.68 44.42 73.68 36.83ZM102.99 52.63H99.74C91.03 52.63 83.94 45.54 83.94 36.83V20.76H87.19C95.9 20.76 102.99 27.85 102.99 36.56V52.63ZM105.37 26.97C104.09 24.56 102.35 22.43 100.26 20.71C100.69 12.38 107.6 5.73999 116.04 5.73999H119.29V16.44C113.25 17.72 108.18 21.66 105.37 26.97ZM111 52.63H107.75V36.56C107.75 27.85 114.84 20.76 123.55 20.76H126.8V36.83C126.8 45.54 119.71 52.63 111 52.63ZM137.05 29.92V36.83C137.05 44.42 131.68 50.77 124.53 52.28C128.83 48.51 131.55 42.98 131.55 36.83V29.92H137.05ZM4.83 25.16H0.0200043C0.0200043 43.05 0.0200043 43.05 0.0200043 43.05H11.94V38.79H4.83V25.16ZM18.32 36.27H23.99V32.11H18.32V29.41H25.58V25.15H13.69C13.69 43.04 13.69 43.04 13.69 43.04H26.11V38.78H18.32V36.27ZM27.29 29.42H31.83C31.83 43.05 31.83 43.05 31.83 43.05H36.59V29.42H41.13V25.16H27.3V29.42H27.29ZM42.93 25.16C42.2 32.17 42.2 32.17 42.2 32.17H45.43L47.27 25.16H42.93ZM54.58 31.94C52.77 31.23 52.39 30.76 52.39 30.15C52.39 29.52 52.79 29.09 53.65 29.09C54.53 29.09 55.49 29.49 57.05 30.7L59.7 27.3C58.04 25.81 55.84 24.86 53.38 24.91C49.95 24.99 47.41 27.28 47.41 30.33C47.41 33.98 50.13 35.29 52.85 36.23C54.77 36.86 55.12 37.24 55.12 37.94C55.12 38.49 54.69 39.1 53.58 39.1C52.47 39.1 50.91 38.55 49.5 37.11L46.78 40.44C48.7 42.41 51.09 43.31 53.41 43.31C56.41 43.31 60.16 41.87 60.16 37.39C60.15 33.93 57.76 33.15 54.58 31.94ZM159.49 29.5C161.15 29.5 162.51 30.51 163.27 31.36L166.77 28.36C164.75 25.92 161.93 24.88 159.49 24.88C153.52 24.88 150.14 29.04 150.14 34.13C150.14 40.1 154.5 43.3 159.49 43.3C162.66 43.3 165.24 41.79 166.77 39.9L163.27 36.88C162.41 37.94 160.9 38.69 159.49 38.69C156.79 38.69 155.18 36.57 155.18 34.13C155.18 31.11 157.28 29.5 159.49 29.5ZM178.75 32.29H173.36V25.16H168.52C168.52 43.05 168.52 43.05 168.52 43.05H173.36V36.52H178.75V43.05H183.61V25.16H178.75V32.29ZM191.39 25.16L184.89 43.05H189.9L190.81 40.15H196.56C197.47 43.05 197.47 43.05 197.47 43.05H202.46L195.98 25.16H191.39ZM192.05 36.15L193.66 30.98H193.71L195.32 36.15C192.05 36.15 192.05 36.15 192.05 36.15ZM201.02 25.16V29.42H205.56C205.56 43.05 205.56 43.05 205.56 43.05H210.32V29.42H214.86V25.16H201.02Z" fill="white"/>
</svg>
