<svg xmlns="http://www.w3.org/2000/svg" viewBox="600 635 27 29" xmlns:xlink="http://www.w3.org/1999/xlink" version="1.1" xml:space="preserve">
	<style type="text/css">
		.st0{fill:#FFFFFF;}
		.st1{fill:#FFB600;}
		.st2{fill:#7D1D5D;}
		.st3{fill:#16C4B9;}
		.st4{enable-background:new    ;}
	</style>
    <path xmlns="http://www.w3.org/2000/svg" class="st1" d="M624.23,644.53l-8.52-2.79l-1.39-5.13c-0.28-1.01-1.33-1.62-2.34-1.34l-9.11,2.48     c-1.01,0.28-1.62,1.33-1.34,2.34l4.16,15.31c0.28,1.01,1.33,1.62,2.34,1.34l0.28-0.08l-0.4,1.22c-0.33,1,0.22,2.08,1.22,2.41     l8.97,2.94c1,0.33,2.08-0.22,2.41-1.22l4.95-15.08C625.77,645.94,625.23,644.86,624.23,644.53z M607.62,655.24     c-0.19,0.05-0.39-0.06-0.44-0.25l-4.16-15.31c-0.05-0.19,0.06-0.39,0.25-0.44l9.11-2.48c0.19-0.05,0.39,0.06,0.44,0.25     l4.16,15.31c0.05,0.19-0.06,0.39-0.25,0.44L607.62,655.24z M623.98,646.45l-4.95,15.08c-0.06,0.19-0.27,0.29-0.45,0.23     l-8.97-2.94c-0.19-0.06-0.29-0.27-0.23-0.45l0.72-2.19l7.05-1.92c1.01-0.28,1.62-1.33,1.34-2.34l-2.28-8.4l7.55,2.48     C623.94,646.06,624.04,646.26,623.98,646.45z"/>
</svg>
