<svg width="28" height="28" viewBox="0 0 23 28" fill="none" xmlns="http://www.w3.org/2000/svg">
<path d="M11.79 17.68C11.39 17.68 11.06 18.01 11.06 18.41V21.49C11.06 21.89 11.39 22.22 11.79 22.22C12.19 22.22 12.52 21.89 12.52 21.49V18.41C12.52 18.01 12.2 17.68 11.79 17.68ZM19.18 11.44H18.78V7.72998C18.78 3.86998 15.65 0.73999 11.79 0.73999C7.92998 0.73999 4.79999 3.86998 4.79999 7.72998V11.44H4.40002C2.29002 11.44 0.580017 13.15 0.580017 15.26V24.18C0.580017 26.29 2.29002 28 4.40002 28H19.17C21.28 28 22.99 26.29 22.99 24.18V15.26C23 13.15 21.29 11.44 19.18 11.44ZM6.27002 7.72998C6.27002 6.19998 6.89001 4.83001 7.89001 3.82001C8.89001 2.82001 10.27 2.20001 11.8 2.20001C13.33 2.20001 14.7 2.82001 15.71 3.82001C16.71 4.82001 17.33 6.19998 17.33 7.72998V11.44H6.28003V7.72998H6.27002ZM21.53 24.18C21.53 24.83 21.27 25.42 20.84 25.85C20.41 26.28 19.83 26.54 19.17 26.54H4.40002C3.75002 26.54 3.15998 26.28 2.72998 25.85C2.29998 25.42 2.03998 24.84 2.03998 24.18V15.26C2.03998 14.61 2.29998 14.02 2.72998 13.59C3.15998 13.16 3.74002 12.9 4.40002 12.9H19.17C19.82 12.9 20.41 13.16 20.84 13.59C21.27 14.02 21.53 14.6 21.53 15.26V24.18Z" fill="#FFB600"/>
</svg>
