<svg width="28" height="20" viewBox="0 0 28 20" fill="none" xmlns="http://www.w3.org/2000/svg">
<path d="M1.50002 3.5H26.5C27.33 3.5 28 2.83 28 2C28 1.17 27.33 0.5 26.5 0.5H1.50002C0.670015 0.5 1.52588e-05 1.17 1.52588e-05 2C1.52588e-05 2.83 0.670015 3.5 1.50002 3.5ZM26.5 8.5H1.50002C0.670015 8.5 1.52588e-05 9.17 1.52588e-05 10C1.52588e-05 10.83 0.670015 11.5 1.50002 11.5H26.5C27.33 11.5 28 10.83 28 10C28 9.17 27.33 8.5 26.5 8.5ZM26.5 16.5H1.50002C0.670015 16.5 1.52588e-05 17.17 1.52588e-05 18C1.52588e-05 18.83 0.670015 19.5 1.50002 19.5H26.5C27.33 19.5 28 18.83 28 18C28 17.17 27.33 16.5 26.5 16.5Z" fill="white"/>
</svg>
