<svg width="28" height="28" viewBox="0 1 27 29" fill="none" xmlns="http://www.w3.org/2000/svg">
<path d="M12.95 4.21002C5.86001 4.21002 0.0800018 9.98001 0.0800018 17.07C0.0800018 24.16 5.85001 29.93 12.95 29.93C20.04 29.93 25.82 24.16 25.82 17.07C25.81 9.98001 20.04 4.21002 12.95 4.21002ZM8.85001 25.05C10.51 24.46 10.68 23.86 10.68 22.61V21.31C10.68 21.11 10.6 20.92 10.46 20.78C10.33 20.65 10.04 19.69 9.89001 18.54C9.86001 18.31 9.75 18.12 9.59 18.01C9.43 17.9 9.25999 17.86 9.07999 17.88C8.93999 17.8 8.54001 17.41 8.39001 16.74C8.25001 16.12 8.29999 15.72 8.35999 15.57C8.52999 15.55 8.69 15.46 8.81 15.34C9.04 15.09 9.04001 15 8.98001 14.14C8.94001 13.47 8.85999 12.35 8.85999 11.5C8.85999 10.28 9.00999 9.88001 9.07999 9.76001C9.99999 9.74001 10.68 9.48002 11.33 9.21002C11.92 8.97002 12.49 8.75 13.24 8.75C14.88 8.75 15.12 9.15002 15.27 9.40002C15.41 9.62002 15.65 9.76001 15.92 9.76001C16.36 9.76001 17.03 9.76003 17.03 11.53C17.03 12.04 16.97 12.96 16.93 13.62C16.84 15.03 16.84 15.09 17.08 15.35C17.19 15.47 17.34 15.55 17.5 15.58C17.56 15.72 17.65 16.13 17.5 16.76C17.35 17.4 16.96 17.81 16.84 17.9C16.66 17.88 16.47 17.92 16.32 18.02C16.14 18.14 16.02 18.33 15.99 18.55C15.84 19.7 15.55 20.66 15.42 20.79C15.28 20.93 15.2 21.12 15.2 21.32V22.62C15.2 23.87 15.37 24.48 17.03 25.06C18.15 25.46 19.08 25.8 19.87 26.12C17.88 27.65 15.44 28.48 12.93 28.48C10.42 28.48 7.97999 27.64 5.98999 26.12C6.78999 25.79 7.73001 25.44 8.85001 25.05ZM17.55 23.62C16.73 23.33 16.73 23.33 16.73 22.6V21.55C17.08 20.98 17.3 20.03 17.42 19.27C17.48 19.24 17.53 19.21 17.59 19.18C18.23 18.79 18.77 17.97 18.98 17.09C19.16 16.3 19.18 15.22 18.66 14.58C18.58 14.48 18.5 14.4 18.4 14.33C18.41 14.14 18.42 13.92 18.44 13.72C18.48 13.03 18.54 12.09 18.54 11.53C18.54 9.08003 17.36 8.40002 16.32 8.27002C15.71 7.55002 14.78 7.23999 13.24 7.23999C12.19 7.23999 11.44 7.54 10.77 7.81C10.21 8.04 9.67 8.25 9 8.25C8.63 8.25 8.30001 8.39002 8.04001 8.65002C7.56001 9.13002 7.35001 10.01 7.35001 11.51C7.35001 12.42 7.43 13.57 7.47 14.26V14.33C7.37 14.4 7.27 14.49 7.19 14.59C6.77 15.12 6.65999 16.06 6.89999 17.1C7.09999 17.98 7.65001 18.8 8.29001 19.19C8.35001 19.22 8.39999 19.25 8.45999 19.28C8.58999 20.04 8.80999 20.99 9.14999 21.56V22.61C9.14999 23.34 9.14999 23.34 8.32999 23.63C6.84999 24.15 5.68001 24.6 4.74001 25C2.67001 22.86 1.53 20.05 1.53 17.08C1.53 10.79 6.64999 5.67999 12.93 5.67999C19.22 5.67999 24.33 10.79 24.33 17.08C24.33 20.06 23.19 22.86 21.12 25C20.21 24.59 19.03 24.14 17.55 23.62Z" fill="#FFB600"/>
<path d="M23.4773 6.40341V0.778409H24.4318V6.40341H23.4773ZM21.142 4.06818V3.11364H26.767V4.06818H21.142Z" fill="#FFB600"/>
</svg>
