<svg version="1.2" xmlns="http://www.w3.org/2000/svg" viewBox="0 0 884 248" width="884" height="248">
	<title>Nový projekt</title>
	<style>
		.s0 { fill: #ffb600 } 
		.s1 { fill: #7d1d5d } 
	</style>
	<g id="Vrstva 1">
		<path id="Path 0" class="s0" d="m884.5 3.1c-2.8 2.8-10.1 9.6-16.4 15.2-6.2 5.6-17.7 15.3-25.5 21.5-7.7 6.2-20 15.3-27.1 20.1-7.1 4.8-16.6 10.7-21 13.1-4.4 2.4-10.3 5.5-13 7-2.8 1.4-9.7 4.7-15.5 7.2-5.8 2.6-16.1 6.5-23 8.7-6.9 2.1-16.8 4.9-22 6-5.2 1.1-14.5 2.8-20.5 3.8-8 1.3-16.5 1.7-31 1.7-13.4 0-23.6-0.6-30.8-1.7-5.9-1-11.3-1.7-11.9-1.7-0.7 0 0.7 1 3.2 2.1 2.5 1.2 15.1 5.6 28 9.9 12.9 4.3 29.8 9.5 37.5 11.5 7.7 1.9 20.3 4.6 28 6 7.7 1.4 19.2 2.9 25.5 3.4 6.3 0.5 19.4 1 29 1 9.6 0 22.7-0.5 29-1 6.3-0.6 16-1.9 21.5-3 5.5-1.1 11.1-2.2 12.5-2.4 1.4-0.2 6.8-1.5 12-2.8 5.2-1.4 14.2-4.1 20-6.1 5.8-1.9 12-4.1 13.8-4.8l3.2-1.3c0-91.8-0.1-118.5-0.3-118.5-0.1 0-2.5 2.3-5.2 5.1zm-854.5 51.9c-5.8 0.5-16.2 1.6-23.3 2.6l-12.7 1.9c0 49.2 0.2 63.5 0.5 63.5 0.3 0 4.9-2.9 10.3-6.3 5.3-3.5 12.2-8 15.2-9.9 3-1.9 10-6.2 15.5-9.5 5.5-3.3 13.4-7.9 17.5-10.3 4.1-2.4 13.3-7.4 20.5-11.2 7.2-3.7 17.4-8.9 22.8-11.5 5.4-2.6 9.7-5.1 9.7-5.5 0-0.5-3.5-1.3-7.8-1.9-4.2-0.6-13.8-1.5-21.2-1.9-7.4-0.5-18.7-0.9-25-0.8-6.3 0.1-16.2 0.4-22 0.8z"/>
		<path id="Path 1" class="s1" d="m285 12c-4.1 0.4-10.9 1.1-15 1.4-4.1 0.3-10.6 1-14.5 1.5-3.9 0.5-11.9 1.9-18 3-6.1 1.1-14.2 2.7-18 3.5-3.8 0.8-10.4 2.4-14.5 3.4-4.1 1.1-11.6 3.2-16.5 4.5-4.9 1.4-15.3 4.7-23 7.2-7.7 2.6-20.3 7.1-28 10.2-7.7 3.1-17.5 7.1-21.8 8.9-4.2 1.9-8.2 3.2-8.7 2.9-0.5-0.3-1.1-0.1-1.3 0.4-0.1 0.5-8.1 4.8-17.7 9.6-9.6 4.8-20 10.1-23 11.7-3 1.7-8.6 4.9-12.5 7.1-3.9 2.2-11.3 6.6-16.5 9.7-5.2 3.2-13.3 8.2-18 11.2-4.7 2.9-12 7.6-16.2 10.3l-7.8 5v131.5h896c0-134.2-0.1-138-1.8-137.6-0.9 0.3-6.9 2.3-13.2 4.5-6.3 2.2-16 5.2-21.5 6.6-5.5 1.5-11.1 2.8-12.5 3-1.4 0.2-7 1.3-12.5 2.4-5.5 1.1-15.2 2.4-21.5 3-6.3 0.5-19.4 1-29 1-9.6 0-22.7-0.5-29-1-6.3-0.5-17.8-2-25.5-3.4-7.7-1.4-20.3-4.1-28-6-7.7-2-24.6-7.1-37.5-11.4-12.9-4.3-26-9-29-10.5-3-1.4-6.6-2.6-8-2.6-1.4 0-6.1-1.7-10.5-3.8-4.4-2.2-14.5-6.5-22.5-9.7-8-3.2-17.6-7.1-21.5-8.7-3.9-1.6-8.4-3.6-10-4.3-1.6-0.7-13.4-5.7-26-11-12.6-5.3-31.1-12.7-41-16.5-9.9-3.7-25.4-9.3-34.5-12.3-9.1-3.1-19.2-6.3-22.5-7.2-3.3-0.9-9.4-2.6-13.5-3.7-4.1-1.1-11.1-2.9-15.5-3.9-4.4-1-15.9-3.2-25.5-4.8-9.6-1.7-25.8-3.7-36-4.6-10.2-0.8-25.5-1.4-34-1.4-8.5 0.1-18.9 0.5-23 0.9z"/>
	</g>
</svg>