<svg xmlns="http://www.w3.org/2000/svg" viewBox="250 635 28 28" xmlns:xlink="http://www.w3.org/1999/xlink" version="1.1" xml:space="preserve">
	<style type="text/css">
		.st0{fill:#FFFFFF;}
		.st1{fill:#7d1d5d;}
		.st2{fill:#7D1D5D;}
		.st3{fill:#16C4B9;}
		.st4{enable-background:new    ;}
	</style>
	<path class="st1" d="M263.95,636.21c-7.09,0-12.87,5.77-12.87,12.86c0,7.09,5.77,12.86,12.87,12.86     c7.09,0,12.87-5.77,12.87-12.86C276.81,641.98,271.04,636.21,263.95,636.21z M259.85,657.05c1.66-0.59,1.83-1.19,1.83-2.44v-1.3     c0-0.2-0.08-0.39-0.22-0.53c-0.13-0.13-0.42-1.09-0.57-2.24c-0.03-0.23-0.14-0.42-0.3-0.53c-0.16-0.11-0.33-0.15-0.51-0.13     c-0.14-0.08-0.54-0.47-0.69-1.14c-0.14-0.62-0.09-1.02-0.03-1.17c0.17-0.02,0.33-0.11,0.45-0.23c0.23-0.25,0.23-0.34,0.17-1.2     c-0.04-0.67-0.12-1.79-0.12-2.64c0-1.22,0.15-1.62,0.22-1.74c0.92-0.02,1.6-0.28,2.25-0.55c0.59-0.24,1.16-0.46,1.91-0.46     c1.64,0,1.88,0.4,2.03,0.65c0.14,0.22,0.38,0.36,0.65,0.36c0.44,0,1.11,0,1.11,1.77c0,0.51-0.06,1.43-0.1,2.09     c-0.09,1.41-0.09,1.47,0.15,1.73c0.11,0.12,0.26,0.2,0.42,0.23c0.06,0.14,0.15,0.55,0,1.18c-0.15,0.64-0.54,1.05-0.66,1.14     c-0.18-0.02-0.37,0.02-0.52,0.12c-0.18,0.12-0.3,0.31-0.33,0.53c-0.15,1.15-0.44,2.11-0.57,2.24c-0.14,0.14-0.22,0.33-0.22,0.53     v1.3c0,1.25,0.17,1.86,1.83,2.44c1.12,0.4,2.05,0.74,2.84,1.06c-1.99,1.53-4.43,2.36-6.94,2.36c-2.51,0-4.95-0.84-6.94-2.36     C257.79,657.79,258.73,657.44,259.85,657.05z M268.55,655.62c-0.82-0.29-0.82-0.29-0.82-1.02v-1.05     c0.35-0.57,0.57-1.52,0.69-2.28c0.06-0.03,0.11-0.06,0.17-0.09c0.64-0.39,1.18-1.21,1.39-2.09c0.18-0.79,0.2-1.87-0.32-2.51     c-0.08-0.1-0.16-0.18-0.26-0.25c0.01-0.19,0.02-0.41,0.04-0.61c0.04-0.69,0.1-1.63,0.1-2.19c0-2.45-1.18-3.13-2.22-3.26     c-0.61-0.72-1.54-1.03-3.08-1.03c-1.05,0-1.8,0.3-2.47,0.57c-0.56,0.23-1.1,0.44-1.77,0.44c-0.37,0-0.7,0.14-0.96,0.4     c-0.48,0.48-0.69,1.36-0.69,2.86c0,0.91,0.08,2.06,0.12,2.75l0,0.07c-0.1,0.07-0.2,0.16-0.28,0.26     c-0.42,0.53-0.53,1.47-0.29,2.51c0.2,0.88,0.75,1.7,1.39,2.09c0.06,0.03,0.11,0.06,0.17,0.09c0.13,0.76,0.35,1.71,0.69,2.28v1.05     c0,0.73,0,0.73-0.82,1.02c-1.48,0.52-2.65,0.97-3.59,1.37c-2.07-2.14-3.21-4.95-3.21-7.92c0-6.29,5.12-11.4,11.4-11.4     c6.29,0,11.4,5.11,11.4,11.4c0,2.98-1.14,5.78-3.21,7.92C271.21,656.59,270.03,656.14,268.55,655.62z"/>
</svg>
